G04 #@! TF.FileFunction,Legend,Top*
%FSLAX46Y46*%
G04 Gerber Fmt 4.6, Leading zero omitted, Abs format (unit mm)*
G04 Created by KiCad (PCBNEW 4.0.2-stable) date 2016-11-20 00:38:07*
%MOMM*%
G01*
G04 APERTURE LIST*
%ADD10C,0.100000*%
%ADD11C,0.200000*%
%ADD12C,0.150000*%
G04 APERTURE END LIST*
D10*
D11*
X152095200Y-124612400D02*
X152095200Y-125018800D01*
X152095200Y-122783600D02*
X152095200Y-122377200D01*
X152095200Y-113461800D02*
X152095200Y-113868200D01*
X152120600Y-111607600D02*
X152120600Y-111201200D01*
D12*
X185420000Y-125730000D02*
X188595000Y-125730000D01*
X188595000Y-110490000D02*
X185420000Y-110490000D01*
X185420000Y-110490000D02*
G75*
G03X177800000Y-118110000I0J-7620000D01*
G01*
X138430000Y-125730000D02*
X138430000Y-124460000D01*
X148590000Y-135890000D02*
X138430000Y-125730000D01*
X149860000Y-135890000D02*
X148590000Y-135890000D01*
X149860000Y-135890000D02*
X188595000Y-135890000D01*
X148590000Y-100330000D02*
X188595000Y-100330000D01*
X138430000Y-110490000D02*
X148590000Y-100330000D01*
X177800000Y-118110000D02*
G75*
G03X185420000Y-125730000I7620000J0D01*
G01*
X138430000Y-124460000D02*
X138430000Y-113030000D01*
X188595000Y-125730000D02*
X188595000Y-135890000D01*
X188595000Y-100330000D02*
X188595000Y-110490000D01*
X138430000Y-113030000D02*
X138430000Y-110490000D01*
X139438540Y-114076600D02*
X139438540Y-122776600D01*
X145843540Y-114076600D02*
X145843540Y-122776600D01*
X145843540Y-122776600D02*
X139438540Y-122776600D01*
X140668540Y-122776600D02*
X140668540Y-114076600D01*
X139438540Y-114076600D02*
X145843540Y-114076600D01*
X158859600Y-111979600D02*
X158859600Y-113249600D01*
X166209600Y-111979600D02*
X166209600Y-113249600D01*
X166209600Y-124189600D02*
X166209600Y-122919600D01*
X158859600Y-124189600D02*
X158859600Y-122919600D01*
X158859600Y-111979600D02*
X166209600Y-111979600D01*
X158859600Y-124189600D02*
X166209600Y-124189600D01*
X158859600Y-113249600D02*
X157924600Y-113249600D01*
X162569000Y-106918000D02*
X162569000Y-104918000D01*
X160519000Y-104918000D02*
X160519000Y-106918000D01*
X166633000Y-106918000D02*
X166633000Y-104918000D01*
X164583000Y-104918000D02*
X164583000Y-106918000D01*
X153130000Y-111622000D02*
X150130000Y-111622000D01*
X153130000Y-113422000D02*
X150130000Y-113422000D01*
X153130000Y-122798000D02*
X150130000Y-122798000D01*
X153130000Y-124598000D02*
X150130000Y-124598000D01*
X151833000Y-106918000D02*
X151833000Y-104918000D01*
X153983000Y-104918000D02*
X153983000Y-106918000D01*
X150765000Y-115130000D02*
X152765000Y-115130000D01*
X152765000Y-117280000D02*
X150765000Y-117280000D01*
X150765000Y-118940000D02*
X152765000Y-118940000D01*
X152765000Y-121090000D02*
X150765000Y-121090000D01*
X156151000Y-106918000D02*
X156151000Y-104918000D01*
X158301000Y-104918000D02*
X158301000Y-106918000D01*
X153865000Y-131302000D02*
X153865000Y-129302000D01*
X156015000Y-129302000D02*
X156015000Y-131302000D01*
X158437000Y-131302000D02*
X158437000Y-129302000D01*
X160587000Y-129302000D02*
X160587000Y-131302000D01*
X164905000Y-129302000D02*
X164905000Y-131302000D01*
X162755000Y-131302000D02*
X162755000Y-129302000D01*
X182214890Y-105960220D02*
X179714890Y-105960220D01*
X179714890Y-105960220D02*
X179714890Y-104860220D01*
X179714890Y-104860220D02*
X182214890Y-104860220D01*
X182214890Y-104860220D02*
X182214890Y-105960220D01*
X182464890Y-104610220D02*
X179464890Y-104610220D01*
X182464890Y-106210220D02*
X179464890Y-106210220D01*
X179464890Y-106210220D02*
X179464890Y-104610220D01*
X182464890Y-106210220D02*
X182464890Y-104610220D01*
X183964890Y-103660220D02*
X177964890Y-103660220D01*
X183964890Y-107160220D02*
X177964890Y-107160220D01*
X183964890Y-107160220D02*
X183964890Y-103660220D01*
X177964890Y-107160220D02*
X177964890Y-103660220D01*
X179735110Y-130259780D02*
X182235110Y-130259780D01*
X182235110Y-130259780D02*
X182235110Y-131359780D01*
X182235110Y-131359780D02*
X179735110Y-131359780D01*
X179735110Y-131359780D02*
X179735110Y-130259780D01*
X179485110Y-131609780D02*
X182485110Y-131609780D01*
X179485110Y-130009780D02*
X182485110Y-130009780D01*
X182485110Y-130009780D02*
X182485110Y-131609780D01*
X179485110Y-130009780D02*
X179485110Y-131609780D01*
X177985110Y-132559780D02*
X183985110Y-132559780D01*
X177985110Y-129059780D02*
X183985110Y-129059780D01*
X177985110Y-129059780D02*
X177985110Y-132559780D01*
X183985110Y-129059780D02*
X183985110Y-132559780D01*
X172720000Y-115570000D02*
X172720000Y-123190000D01*
X170180000Y-115570000D02*
X170180000Y-123190000D01*
X169900000Y-112750000D02*
X169900000Y-114300000D01*
X172720000Y-123190000D02*
X170180000Y-123190000D01*
X170180000Y-115570000D02*
X172720000Y-115570000D01*
X173000000Y-114300000D02*
X173000000Y-112750000D01*
X173000000Y-112750000D02*
X169900000Y-112750000D01*
X140485905Y-113228381D02*
X140485905Y-112228381D01*
X140866858Y-112228381D01*
X140962096Y-112276000D01*
X141009715Y-112323619D01*
X141057334Y-112418857D01*
X141057334Y-112561714D01*
X141009715Y-112656952D01*
X140962096Y-112704571D01*
X140866858Y-112752190D01*
X140485905Y-112752190D01*
X142009715Y-113228381D02*
X141438286Y-113228381D01*
X141724000Y-113228381D02*
X141724000Y-112228381D01*
X141628762Y-112371238D01*
X141533524Y-112466476D01*
X141438286Y-112514095D01*
X156376810Y-112517181D02*
X156376810Y-111517181D01*
X157424429Y-112421943D02*
X157376810Y-112469562D01*
X157233953Y-112517181D01*
X157138715Y-112517181D01*
X156995857Y-112469562D01*
X156900619Y-112374324D01*
X156853000Y-112279086D01*
X156805381Y-112088610D01*
X156805381Y-111945752D01*
X156853000Y-111755276D01*
X156900619Y-111660038D01*
X156995857Y-111564800D01*
X157138715Y-111517181D01*
X157233953Y-111517181D01*
X157376810Y-111564800D01*
X157424429Y-111612419D01*
X158376810Y-112517181D02*
X157805381Y-112517181D01*
X158091095Y-112517181D02*
X158091095Y-111517181D01*
X157995857Y-111660038D01*
X157900619Y-111755276D01*
X157805381Y-111802895D01*
X161377334Y-110593143D02*
X161329715Y-110640762D01*
X161186858Y-110688381D01*
X161091620Y-110688381D01*
X160948762Y-110640762D01*
X160853524Y-110545524D01*
X160805905Y-110450286D01*
X160758286Y-110259810D01*
X160758286Y-110116952D01*
X160805905Y-109926476D01*
X160853524Y-109831238D01*
X160948762Y-109736000D01*
X161091620Y-109688381D01*
X161186858Y-109688381D01*
X161329715Y-109736000D01*
X161377334Y-109783619D01*
X162329715Y-110688381D02*
X161758286Y-110688381D01*
X162044000Y-110688381D02*
X162044000Y-109688381D01*
X161948762Y-109831238D01*
X161853524Y-109926476D01*
X161758286Y-109974095D01*
X165441334Y-110593143D02*
X165393715Y-110640762D01*
X165250858Y-110688381D01*
X165155620Y-110688381D01*
X165012762Y-110640762D01*
X164917524Y-110545524D01*
X164869905Y-110450286D01*
X164822286Y-110259810D01*
X164822286Y-110116952D01*
X164869905Y-109926476D01*
X164917524Y-109831238D01*
X165012762Y-109736000D01*
X165155620Y-109688381D01*
X165250858Y-109688381D01*
X165393715Y-109736000D01*
X165441334Y-109783619D01*
X165822286Y-109783619D02*
X165869905Y-109736000D01*
X165965143Y-109688381D01*
X166203239Y-109688381D01*
X166298477Y-109736000D01*
X166346096Y-109783619D01*
X166393715Y-109878857D01*
X166393715Y-109974095D01*
X166346096Y-110116952D01*
X165774667Y-110688381D01*
X166393715Y-110688381D01*
X146264476Y-111974381D02*
X146931143Y-111974381D01*
X146264476Y-112974381D01*
X146931143Y-112974381D01*
X147312095Y-112974381D02*
X147312095Y-111974381D01*
X147550190Y-111974381D01*
X147693048Y-112022000D01*
X147788286Y-112117238D01*
X147835905Y-112212476D01*
X147883524Y-112402952D01*
X147883524Y-112545810D01*
X147835905Y-112736286D01*
X147788286Y-112831524D01*
X147693048Y-112926762D01*
X147550190Y-112974381D01*
X147312095Y-112974381D01*
X148835905Y-112974381D02*
X148264476Y-112974381D01*
X148550190Y-112974381D02*
X148550190Y-111974381D01*
X148454952Y-112117238D01*
X148359714Y-112212476D01*
X148264476Y-112260095D01*
X145756476Y-123658381D02*
X146423143Y-123658381D01*
X145756476Y-124658381D01*
X146423143Y-124658381D01*
X146804095Y-124658381D02*
X146804095Y-123658381D01*
X147042190Y-123658381D01*
X147185048Y-123706000D01*
X147280286Y-123801238D01*
X147327905Y-123896476D01*
X147375524Y-124086952D01*
X147375524Y-124229810D01*
X147327905Y-124420286D01*
X147280286Y-124515524D01*
X147185048Y-124610762D01*
X147042190Y-124658381D01*
X146804095Y-124658381D01*
X147756476Y-123753619D02*
X147804095Y-123706000D01*
X147899333Y-123658381D01*
X148137429Y-123658381D01*
X148232667Y-123706000D01*
X148280286Y-123753619D01*
X148327905Y-123848857D01*
X148327905Y-123944095D01*
X148280286Y-124086952D01*
X147708857Y-124658381D01*
X148327905Y-124658381D01*
X152868334Y-110688381D02*
X152535000Y-110212190D01*
X152296905Y-110688381D02*
X152296905Y-109688381D01*
X152677858Y-109688381D01*
X152773096Y-109736000D01*
X152820715Y-109783619D01*
X152868334Y-109878857D01*
X152868334Y-110021714D01*
X152820715Y-110116952D01*
X152773096Y-110164571D01*
X152677858Y-110212190D01*
X152296905Y-110212190D01*
X153820715Y-110688381D02*
X153249286Y-110688381D01*
X153535000Y-110688381D02*
X153535000Y-109688381D01*
X153439762Y-109831238D01*
X153344524Y-109926476D01*
X153249286Y-109974095D01*
X147026334Y-116657381D02*
X146693000Y-116181190D01*
X146454905Y-116657381D02*
X146454905Y-115657381D01*
X146835858Y-115657381D01*
X146931096Y-115705000D01*
X146978715Y-115752619D01*
X147026334Y-115847857D01*
X147026334Y-115990714D01*
X146978715Y-116085952D01*
X146931096Y-116133571D01*
X146835858Y-116181190D01*
X146454905Y-116181190D01*
X147407286Y-115752619D02*
X147454905Y-115705000D01*
X147550143Y-115657381D01*
X147788239Y-115657381D01*
X147883477Y-115705000D01*
X147931096Y-115752619D01*
X147978715Y-115847857D01*
X147978715Y-115943095D01*
X147931096Y-116085952D01*
X147359667Y-116657381D01*
X147978715Y-116657381D01*
X147153334Y-120467381D02*
X146820000Y-119991190D01*
X146581905Y-120467381D02*
X146581905Y-119467381D01*
X146962858Y-119467381D01*
X147058096Y-119515000D01*
X147105715Y-119562619D01*
X147153334Y-119657857D01*
X147153334Y-119800714D01*
X147105715Y-119895952D01*
X147058096Y-119943571D01*
X146962858Y-119991190D01*
X146581905Y-119991190D01*
X147486667Y-119467381D02*
X148105715Y-119467381D01*
X147772381Y-119848333D01*
X147915239Y-119848333D01*
X148010477Y-119895952D01*
X148058096Y-119943571D01*
X148105715Y-120038810D01*
X148105715Y-120276905D01*
X148058096Y-120372143D01*
X148010477Y-120419762D01*
X147915239Y-120467381D01*
X147629524Y-120467381D01*
X147534286Y-120419762D01*
X147486667Y-120372143D01*
X157059334Y-110688381D02*
X156726000Y-110212190D01*
X156487905Y-110688381D02*
X156487905Y-109688381D01*
X156868858Y-109688381D01*
X156964096Y-109736000D01*
X157011715Y-109783619D01*
X157059334Y-109878857D01*
X157059334Y-110021714D01*
X157011715Y-110116952D01*
X156964096Y-110164571D01*
X156868858Y-110212190D01*
X156487905Y-110212190D01*
X157916477Y-110021714D02*
X157916477Y-110688381D01*
X157678381Y-109640762D02*
X157440286Y-110355048D01*
X158059334Y-110355048D01*
X154773334Y-126436381D02*
X154440000Y-125960190D01*
X154201905Y-126436381D02*
X154201905Y-125436381D01*
X154582858Y-125436381D01*
X154678096Y-125484000D01*
X154725715Y-125531619D01*
X154773334Y-125626857D01*
X154773334Y-125769714D01*
X154725715Y-125864952D01*
X154678096Y-125912571D01*
X154582858Y-125960190D01*
X154201905Y-125960190D01*
X155678096Y-125436381D02*
X155201905Y-125436381D01*
X155154286Y-125912571D01*
X155201905Y-125864952D01*
X155297143Y-125817333D01*
X155535239Y-125817333D01*
X155630477Y-125864952D01*
X155678096Y-125912571D01*
X155725715Y-126007810D01*
X155725715Y-126245905D01*
X155678096Y-126341143D01*
X155630477Y-126388762D01*
X155535239Y-126436381D01*
X155297143Y-126436381D01*
X155201905Y-126388762D01*
X155154286Y-126341143D01*
X159345334Y-126436381D02*
X159012000Y-125960190D01*
X158773905Y-126436381D02*
X158773905Y-125436381D01*
X159154858Y-125436381D01*
X159250096Y-125484000D01*
X159297715Y-125531619D01*
X159345334Y-125626857D01*
X159345334Y-125769714D01*
X159297715Y-125864952D01*
X159250096Y-125912571D01*
X159154858Y-125960190D01*
X158773905Y-125960190D01*
X160202477Y-125436381D02*
X160012000Y-125436381D01*
X159916762Y-125484000D01*
X159869143Y-125531619D01*
X159773905Y-125674476D01*
X159726286Y-125864952D01*
X159726286Y-126245905D01*
X159773905Y-126341143D01*
X159821524Y-126388762D01*
X159916762Y-126436381D01*
X160107239Y-126436381D01*
X160202477Y-126388762D01*
X160250096Y-126341143D01*
X160297715Y-126245905D01*
X160297715Y-126007810D01*
X160250096Y-125912571D01*
X160202477Y-125864952D01*
X160107239Y-125817333D01*
X159916762Y-125817333D01*
X159821524Y-125864952D01*
X159773905Y-125912571D01*
X159726286Y-126007810D01*
X163663334Y-126436381D02*
X163330000Y-125960190D01*
X163091905Y-126436381D02*
X163091905Y-125436381D01*
X163472858Y-125436381D01*
X163568096Y-125484000D01*
X163615715Y-125531619D01*
X163663334Y-125626857D01*
X163663334Y-125769714D01*
X163615715Y-125864952D01*
X163568096Y-125912571D01*
X163472858Y-125960190D01*
X163091905Y-125960190D01*
X163996667Y-125436381D02*
X164663334Y-125436381D01*
X164234762Y-126436381D01*
X179768667Y-108862762D02*
X179911524Y-108910381D01*
X180149620Y-108910381D01*
X180244858Y-108862762D01*
X180292477Y-108815143D01*
X180340096Y-108719905D01*
X180340096Y-108624667D01*
X180292477Y-108529429D01*
X180244858Y-108481810D01*
X180149620Y-108434190D01*
X179959143Y-108386571D01*
X179863905Y-108338952D01*
X179816286Y-108291333D01*
X179768667Y-108196095D01*
X179768667Y-108100857D01*
X179816286Y-108005619D01*
X179863905Y-107958000D01*
X179959143Y-107910381D01*
X180197239Y-107910381D01*
X180340096Y-107958000D01*
X180673429Y-107910381D02*
X180911524Y-108910381D01*
X181102001Y-108196095D01*
X181292477Y-108910381D01*
X181530572Y-107910381D01*
X182435334Y-108910381D02*
X181863905Y-108910381D01*
X182149619Y-108910381D02*
X182149619Y-107910381D01*
X182054381Y-108053238D01*
X181959143Y-108148476D01*
X181863905Y-108196095D01*
X179641667Y-134389762D02*
X179784524Y-134437381D01*
X180022620Y-134437381D01*
X180117858Y-134389762D01*
X180165477Y-134342143D01*
X180213096Y-134246905D01*
X180213096Y-134151667D01*
X180165477Y-134056429D01*
X180117858Y-134008810D01*
X180022620Y-133961190D01*
X179832143Y-133913571D01*
X179736905Y-133865952D01*
X179689286Y-133818333D01*
X179641667Y-133723095D01*
X179641667Y-133627857D01*
X179689286Y-133532619D01*
X179736905Y-133485000D01*
X179832143Y-133437381D01*
X180070239Y-133437381D01*
X180213096Y-133485000D01*
X180546429Y-133437381D02*
X180784524Y-134437381D01*
X180975001Y-133723095D01*
X181165477Y-134437381D01*
X181403572Y-133437381D01*
X181736905Y-133532619D02*
X181784524Y-133485000D01*
X181879762Y-133437381D01*
X182117858Y-133437381D01*
X182213096Y-133485000D01*
X182260715Y-133532619D01*
X182308334Y-133627857D01*
X182308334Y-133723095D01*
X182260715Y-133865952D01*
X181689286Y-134437381D01*
X182308334Y-134437381D01*
X170711905Y-112212381D02*
X170711905Y-111212381D01*
X171092858Y-111212381D01*
X171188096Y-111260000D01*
X171235715Y-111307619D01*
X171283334Y-111402857D01*
X171283334Y-111545714D01*
X171235715Y-111640952D01*
X171188096Y-111688571D01*
X171092858Y-111736190D01*
X170711905Y-111736190D01*
X171664286Y-111307619D02*
X171711905Y-111260000D01*
X171807143Y-111212381D01*
X172045239Y-111212381D01*
X172140477Y-111260000D01*
X172188096Y-111307619D01*
X172235715Y-111402857D01*
X172235715Y-111498095D01*
X172188096Y-111640952D01*
X171616667Y-112212381D01*
X172235715Y-112212381D01*
M02*
