G04 #@! TF.FileFunction,Legend,Bot*
%FSLAX46Y46*%
G04 Gerber Fmt 4.6, Leading zero omitted, Abs format (unit mm)*
G04 Created by KiCad (PCBNEW 4.0.2-stable) date 2016-11-20 00:38:07*
%MOMM*%
G01*
G04 APERTURE LIST*
%ADD10C,0.100000*%
%ADD11C,0.300000*%
%ADD12C,0.500000*%
%ADD13C,0.150000*%
%ADD14C,0.010000*%
G04 APERTURE END LIST*
D10*
D11*
X175430571Y-103863999D02*
X173930571Y-103863999D01*
X175430571Y-104506856D02*
X174644857Y-104506856D01*
X174502000Y-104435427D01*
X174430571Y-104292570D01*
X174430571Y-104078285D01*
X174502000Y-103935427D01*
X174573429Y-103863999D01*
X174430571Y-105006856D02*
X174430571Y-105578285D01*
X173930571Y-105221142D02*
X175216286Y-105221142D01*
X175359143Y-105292570D01*
X175430571Y-105435428D01*
X175430571Y-105578285D01*
X174430571Y-105863999D02*
X174430571Y-106435428D01*
X173930571Y-106078285D02*
X175216286Y-106078285D01*
X175359143Y-106149713D01*
X175430571Y-106292571D01*
X175430571Y-106435428D01*
X174430571Y-106935428D02*
X175930571Y-106935428D01*
X174502000Y-106935428D02*
X174430571Y-107078285D01*
X174430571Y-107363999D01*
X174502000Y-107506856D01*
X174573429Y-107578285D01*
X174716286Y-107649714D01*
X175144857Y-107649714D01*
X175287714Y-107578285D01*
X175359143Y-107506856D01*
X175430571Y-107363999D01*
X175430571Y-107078285D01*
X175359143Y-106935428D01*
X175287714Y-108292571D02*
X175359143Y-108363999D01*
X175430571Y-108292571D01*
X175359143Y-108221142D01*
X175287714Y-108292571D01*
X175430571Y-108292571D01*
X174502000Y-108292571D02*
X174573429Y-108363999D01*
X174644857Y-108292571D01*
X174573429Y-108221142D01*
X174502000Y-108292571D01*
X174644857Y-108292571D01*
X173859143Y-110078285D02*
X175787714Y-108792571D01*
X173859143Y-111649714D02*
X175787714Y-110364000D01*
X174430571Y-112006858D02*
X175430571Y-112292572D01*
X174716286Y-112578286D01*
X175430571Y-112864001D01*
X174430571Y-113149715D01*
X174430571Y-113578287D02*
X175430571Y-113864001D01*
X174716286Y-114149715D01*
X175430571Y-114435430D01*
X174430571Y-114721144D01*
X174430571Y-115149716D02*
X175430571Y-115435430D01*
X174716286Y-115721144D01*
X175430571Y-116006859D01*
X174430571Y-116292573D01*
X175287714Y-116864002D02*
X175359143Y-116935430D01*
X175430571Y-116864002D01*
X175359143Y-116792573D01*
X175287714Y-116864002D01*
X175430571Y-116864002D01*
X175359143Y-118221145D02*
X175430571Y-118078288D01*
X175430571Y-117792574D01*
X175359143Y-117649716D01*
X175287714Y-117578288D01*
X175144857Y-117506859D01*
X174716286Y-117506859D01*
X174573429Y-117578288D01*
X174502000Y-117649716D01*
X174430571Y-117792574D01*
X174430571Y-118078288D01*
X174502000Y-118221145D01*
X174430571Y-118721145D02*
X175430571Y-119078288D01*
X174430571Y-119435430D02*
X175430571Y-119078288D01*
X175787714Y-118935430D01*
X175859143Y-118864002D01*
X175930571Y-118721145D01*
X175430571Y-120006859D02*
X173930571Y-120006859D01*
X174502000Y-120006859D02*
X174430571Y-120149716D01*
X174430571Y-120435430D01*
X174502000Y-120578287D01*
X174573429Y-120649716D01*
X174716286Y-120721145D01*
X175144857Y-120721145D01*
X175287714Y-120649716D01*
X175359143Y-120578287D01*
X175430571Y-120435430D01*
X175430571Y-120149716D01*
X175359143Y-120006859D01*
X175359143Y-121935430D02*
X175430571Y-121792573D01*
X175430571Y-121506859D01*
X175359143Y-121364002D01*
X175216286Y-121292573D01*
X174644857Y-121292573D01*
X174502000Y-121364002D01*
X174430571Y-121506859D01*
X174430571Y-121792573D01*
X174502000Y-121935430D01*
X174644857Y-122006859D01*
X174787714Y-122006859D01*
X174930571Y-121292573D01*
X175430571Y-122649716D02*
X174430571Y-122649716D01*
X174716286Y-122649716D02*
X174573429Y-122721144D01*
X174502000Y-122792573D01*
X174430571Y-122935430D01*
X174430571Y-123078287D01*
X175359143Y-124221144D02*
X175430571Y-124078287D01*
X175430571Y-123792573D01*
X175359143Y-123649715D01*
X175287714Y-123578287D01*
X175144857Y-123506858D01*
X174716286Y-123506858D01*
X174573429Y-123578287D01*
X174502000Y-123649715D01*
X174430571Y-123792573D01*
X174430571Y-124078287D01*
X174502000Y-124221144D01*
X175430571Y-125078287D02*
X175359143Y-124935429D01*
X175287714Y-124864001D01*
X175144857Y-124792572D01*
X174716286Y-124792572D01*
X174573429Y-124864001D01*
X174502000Y-124935429D01*
X174430571Y-125078287D01*
X174430571Y-125292572D01*
X174502000Y-125435429D01*
X174573429Y-125506858D01*
X174716286Y-125578287D01*
X175144857Y-125578287D01*
X175287714Y-125506858D01*
X175359143Y-125435429D01*
X175430571Y-125292572D01*
X175430571Y-125078287D01*
X175430571Y-126221144D02*
X174430571Y-126221144D01*
X174573429Y-126221144D02*
X174502000Y-126292572D01*
X174430571Y-126435430D01*
X174430571Y-126649715D01*
X174502000Y-126792572D01*
X174644857Y-126864001D01*
X175430571Y-126864001D01*
X174644857Y-126864001D02*
X174502000Y-126935430D01*
X174430571Y-127078287D01*
X174430571Y-127292572D01*
X174502000Y-127435430D01*
X174644857Y-127506858D01*
X175430571Y-127506858D01*
X175287714Y-128221144D02*
X175359143Y-128292572D01*
X175430571Y-128221144D01*
X175359143Y-128149715D01*
X175287714Y-128221144D01*
X175430571Y-128221144D01*
X175359143Y-129578287D02*
X175430571Y-129435430D01*
X175430571Y-129149716D01*
X175359143Y-129006858D01*
X175287714Y-128935430D01*
X175144857Y-128864001D01*
X174716286Y-128864001D01*
X174573429Y-128935430D01*
X174502000Y-129006858D01*
X174430571Y-129149716D01*
X174430571Y-129435430D01*
X174502000Y-129578287D01*
X175430571Y-130435430D02*
X175359143Y-130292572D01*
X175287714Y-130221144D01*
X175144857Y-130149715D01*
X174716286Y-130149715D01*
X174573429Y-130221144D01*
X174502000Y-130292572D01*
X174430571Y-130435430D01*
X174430571Y-130649715D01*
X174502000Y-130792572D01*
X174573429Y-130864001D01*
X174716286Y-130935430D01*
X175144857Y-130935430D01*
X175287714Y-130864001D01*
X175359143Y-130792572D01*
X175430571Y-130649715D01*
X175430571Y-130435430D01*
X175430571Y-131578287D02*
X174430571Y-131578287D01*
X174573429Y-131578287D02*
X174502000Y-131649715D01*
X174430571Y-131792573D01*
X174430571Y-132006858D01*
X174502000Y-132149715D01*
X174644857Y-132221144D01*
X175430571Y-132221144D01*
X174644857Y-132221144D02*
X174502000Y-132292573D01*
X174430571Y-132435430D01*
X174430571Y-132649715D01*
X174502000Y-132792573D01*
X174644857Y-132864001D01*
X175430571Y-132864001D01*
D12*
X161060000Y-113645714D02*
X160917143Y-113407619D01*
X160917143Y-113050476D01*
X161060000Y-112693333D01*
X161345714Y-112455238D01*
X161631429Y-112336190D01*
X162202857Y-112217142D01*
X162631429Y-112217142D01*
X163202857Y-112336190D01*
X163488571Y-112455238D01*
X163774286Y-112693333D01*
X163917143Y-113050476D01*
X163917143Y-113288571D01*
X163774286Y-113645714D01*
X163631429Y-113764762D01*
X162631429Y-113764762D01*
X162631429Y-113288571D01*
X163917143Y-116264762D02*
X162488571Y-115431428D01*
X163917143Y-114836190D02*
X160917143Y-114836190D01*
X160917143Y-115788571D01*
X161060000Y-116026666D01*
X161202857Y-116145714D01*
X161488571Y-116264762D01*
X161917143Y-116264762D01*
X162202857Y-116145714D01*
X162345714Y-116026666D01*
X162488571Y-115788571D01*
X162488571Y-114836190D01*
X160917143Y-117812381D02*
X160917143Y-118288571D01*
X161060000Y-118526666D01*
X161345714Y-118764762D01*
X161917143Y-118883809D01*
X162917143Y-118883809D01*
X163488571Y-118764762D01*
X163774286Y-118526666D01*
X163917143Y-118288571D01*
X163917143Y-117812381D01*
X163774286Y-117574285D01*
X163488571Y-117336190D01*
X162917143Y-117217142D01*
X161917143Y-117217142D01*
X161345714Y-117336190D01*
X161060000Y-117574285D01*
X160917143Y-117812381D01*
X160917143Y-119955238D02*
X163345714Y-119955238D01*
X163631429Y-120074286D01*
X163774286Y-120193333D01*
X163917143Y-120431429D01*
X163917143Y-120907619D01*
X163774286Y-121145714D01*
X163631429Y-121264762D01*
X163345714Y-121383810D01*
X160917143Y-121383810D01*
X163917143Y-122574286D02*
X160917143Y-122574286D01*
X160917143Y-123526667D01*
X161060000Y-123764762D01*
X161202857Y-123883810D01*
X161488571Y-124002858D01*
X161917143Y-124002858D01*
X162202857Y-123883810D01*
X162345714Y-123764762D01*
X162488571Y-123526667D01*
X162488571Y-122574286D01*
X156011429Y-106637334D02*
X156154286Y-106518286D01*
X156297143Y-106161143D01*
X156297143Y-105923048D01*
X156154286Y-105565905D01*
X155868571Y-105327810D01*
X155582857Y-105208762D01*
X155011429Y-105089714D01*
X154582857Y-105089714D01*
X154011429Y-105208762D01*
X153725714Y-105327810D01*
X153440000Y-105565905D01*
X153297143Y-105923048D01*
X153297143Y-106161143D01*
X153440000Y-106518286D01*
X153582857Y-106637334D01*
X154868571Y-108184953D02*
X156297143Y-108184953D01*
X153297143Y-107351619D02*
X154868571Y-108184953D01*
X153297143Y-109018286D01*
X154725714Y-110684952D02*
X154868571Y-111042095D01*
X155011429Y-111161143D01*
X155297143Y-111280191D01*
X155725714Y-111280191D01*
X156011429Y-111161143D01*
X156154286Y-111042095D01*
X156297143Y-110804000D01*
X156297143Y-109851619D01*
X153297143Y-109851619D01*
X153297143Y-110684952D01*
X153440000Y-110923048D01*
X153582857Y-111042095D01*
X153868571Y-111161143D01*
X154154286Y-111161143D01*
X154440000Y-111042095D01*
X154582857Y-110923048D01*
X154725714Y-110684952D01*
X154725714Y-109851619D01*
X154725714Y-112351619D02*
X154725714Y-113184952D01*
X156297143Y-113542095D02*
X156297143Y-112351619D01*
X153297143Y-112351619D01*
X153297143Y-113542095D01*
X156297143Y-116042096D02*
X154868571Y-115208762D01*
X156297143Y-114613524D02*
X153297143Y-114613524D01*
X153297143Y-115565905D01*
X153440000Y-115804000D01*
X153582857Y-115923048D01*
X153868571Y-116042096D01*
X154297143Y-116042096D01*
X154582857Y-115923048D01*
X154725714Y-115804000D01*
X154868571Y-115565905D01*
X154868571Y-114613524D01*
X156011429Y-118542096D02*
X156154286Y-118423048D01*
X156297143Y-118065905D01*
X156297143Y-117827810D01*
X156154286Y-117470667D01*
X155868571Y-117232572D01*
X155582857Y-117113524D01*
X155011429Y-116994476D01*
X154582857Y-116994476D01*
X154011429Y-117113524D01*
X153725714Y-117232572D01*
X153440000Y-117470667D01*
X153297143Y-117827810D01*
X153297143Y-118065905D01*
X153440000Y-118423048D01*
X153582857Y-118542096D01*
X153297143Y-120089715D02*
X153297143Y-120565905D01*
X153440000Y-120804000D01*
X153725714Y-121042096D01*
X154297143Y-121161143D01*
X155297143Y-121161143D01*
X155868571Y-121042096D01*
X156154286Y-120804000D01*
X156297143Y-120565905D01*
X156297143Y-120089715D01*
X156154286Y-119851619D01*
X155868571Y-119613524D01*
X155297143Y-119494476D01*
X154297143Y-119494476D01*
X153725714Y-119613524D01*
X153440000Y-119851619D01*
X153297143Y-120089715D01*
X156297143Y-122232572D02*
X153297143Y-122232572D01*
X155440000Y-123065905D01*
X153297143Y-123899239D01*
X156297143Y-123899239D01*
D13*
X185420000Y-125730000D02*
X188595000Y-125730000D01*
X188595000Y-110490000D02*
X185420000Y-110490000D01*
X185420000Y-110490000D02*
G75*
G03X177800000Y-118110000I0J-7620000D01*
G01*
X138430000Y-125730000D02*
X138430000Y-124460000D01*
X148590000Y-135890000D02*
X138430000Y-125730000D01*
X149860000Y-135890000D02*
X148590000Y-135890000D01*
X149860000Y-135890000D02*
X188595000Y-135890000D01*
X148590000Y-100330000D02*
X188595000Y-100330000D01*
X138430000Y-110490000D02*
X148590000Y-100330000D01*
X177800000Y-118110000D02*
G75*
G03X185420000Y-125730000I7620000J0D01*
G01*
X138430000Y-124460000D02*
X138430000Y-113030000D01*
X188595000Y-125730000D02*
X188595000Y-135890000D01*
X188595000Y-100330000D02*
X188595000Y-110490000D01*
X138430000Y-113030000D02*
X138430000Y-110490000D01*
D14*
G36*
X155321291Y-128611312D02*
X155321582Y-130540125D01*
X155461545Y-130197524D01*
X155679851Y-129724699D01*
X155933981Y-129283385D01*
X156219457Y-128878740D01*
X156531799Y-128515916D01*
X156866527Y-128200069D01*
X157219161Y-127936353D01*
X157585221Y-127729925D01*
X157620099Y-127713679D01*
X157709595Y-127677256D01*
X157849591Y-127625954D01*
X158029803Y-127563278D01*
X158239950Y-127492728D01*
X158469750Y-127417809D01*
X158708920Y-127342022D01*
X158734125Y-127334168D01*
X158920460Y-127275947D01*
X159159416Y-127200890D01*
X159443124Y-127111488D01*
X159763716Y-127010231D01*
X160113325Y-126899608D01*
X160484083Y-126782109D01*
X160868122Y-126660226D01*
X161257574Y-126536448D01*
X161644572Y-126413265D01*
X161766250Y-126374493D01*
X162125133Y-126260142D01*
X162469412Y-126150516D01*
X162793813Y-126047288D01*
X163093062Y-125952135D01*
X163361888Y-125866730D01*
X163595017Y-125792748D01*
X163787177Y-125731863D01*
X163933094Y-125685751D01*
X164027496Y-125656084D01*
X164060187Y-125645975D01*
X164211000Y-125600539D01*
X164211000Y-124847749D01*
X164091937Y-124874099D01*
X164033564Y-124886572D01*
X163919188Y-124910591D01*
X163753104Y-124945267D01*
X163539604Y-124989713D01*
X163282981Y-125043043D01*
X162987527Y-125104368D01*
X162657535Y-125172803D01*
X162297299Y-125247459D01*
X161911110Y-125327449D01*
X161503262Y-125411885D01*
X161078048Y-125499882D01*
X160639760Y-125590551D01*
X160192691Y-125683005D01*
X159741134Y-125776358D01*
X159289381Y-125869721D01*
X158841726Y-125962207D01*
X158402462Y-126052929D01*
X157975881Y-126141001D01*
X157566275Y-126225534D01*
X157177938Y-126305642D01*
X156815163Y-126380436D01*
X156482242Y-126449031D01*
X156183468Y-126510538D01*
X155923135Y-126564071D01*
X155705533Y-126608742D01*
X155534958Y-126643664D01*
X155415700Y-126667949D01*
X155352054Y-126680711D01*
X155342337Y-126682500D01*
X155338542Y-126713340D01*
X155334972Y-126802228D01*
X155331687Y-126943707D01*
X155328747Y-127132326D01*
X155326210Y-127362629D01*
X155324136Y-127629164D01*
X155322585Y-127926477D01*
X155321616Y-128249115D01*
X155321289Y-128591623D01*
X155321291Y-128611312D01*
X155321291Y-128611312D01*
G37*
X155321291Y-128611312D02*
X155321582Y-130540125D01*
X155461545Y-130197524D01*
X155679851Y-129724699D01*
X155933981Y-129283385D01*
X156219457Y-128878740D01*
X156531799Y-128515916D01*
X156866527Y-128200069D01*
X157219161Y-127936353D01*
X157585221Y-127729925D01*
X157620099Y-127713679D01*
X157709595Y-127677256D01*
X157849591Y-127625954D01*
X158029803Y-127563278D01*
X158239950Y-127492728D01*
X158469750Y-127417809D01*
X158708920Y-127342022D01*
X158734125Y-127334168D01*
X158920460Y-127275947D01*
X159159416Y-127200890D01*
X159443124Y-127111488D01*
X159763716Y-127010231D01*
X160113325Y-126899608D01*
X160484083Y-126782109D01*
X160868122Y-126660226D01*
X161257574Y-126536448D01*
X161644572Y-126413265D01*
X161766250Y-126374493D01*
X162125133Y-126260142D01*
X162469412Y-126150516D01*
X162793813Y-126047288D01*
X163093062Y-125952135D01*
X163361888Y-125866730D01*
X163595017Y-125792748D01*
X163787177Y-125731863D01*
X163933094Y-125685751D01*
X164027496Y-125656084D01*
X164060187Y-125645975D01*
X164211000Y-125600539D01*
X164211000Y-124847749D01*
X164091937Y-124874099D01*
X164033564Y-124886572D01*
X163919188Y-124910591D01*
X163753104Y-124945267D01*
X163539604Y-124989713D01*
X163282981Y-125043043D01*
X162987527Y-125104368D01*
X162657535Y-125172803D01*
X162297299Y-125247459D01*
X161911110Y-125327449D01*
X161503262Y-125411885D01*
X161078048Y-125499882D01*
X160639760Y-125590551D01*
X160192691Y-125683005D01*
X159741134Y-125776358D01*
X159289381Y-125869721D01*
X158841726Y-125962207D01*
X158402462Y-126052929D01*
X157975881Y-126141001D01*
X157566275Y-126225534D01*
X157177938Y-126305642D01*
X156815163Y-126380436D01*
X156482242Y-126449031D01*
X156183468Y-126510538D01*
X155923135Y-126564071D01*
X155705533Y-126608742D01*
X155534958Y-126643664D01*
X155415700Y-126667949D01*
X155352054Y-126680711D01*
X155342337Y-126682500D01*
X155338542Y-126713340D01*
X155334972Y-126802228D01*
X155331687Y-126943707D01*
X155328747Y-127132326D01*
X155326210Y-127362629D01*
X155324136Y-127629164D01*
X155322585Y-127926477D01*
X155321616Y-128249115D01*
X155321289Y-128591623D01*
X155321291Y-128611312D01*
G36*
X155324279Y-132064125D02*
X155446490Y-131722059D01*
X155653909Y-131208493D01*
X155892651Y-130738962D01*
X156160501Y-130316237D01*
X156455244Y-129943092D01*
X156774663Y-129622301D01*
X157116544Y-129356637D01*
X157478672Y-129148874D01*
X157516009Y-129131344D01*
X157701081Y-129051462D01*
X157875611Y-128989337D01*
X158057381Y-128940291D01*
X158264176Y-128899644D01*
X158513780Y-128862716D01*
X158559500Y-128856760D01*
X159228666Y-128753155D01*
X159941074Y-128609074D01*
X160692128Y-128425801D01*
X161477236Y-128204624D01*
X162291801Y-127946826D01*
X163131232Y-127653695D01*
X163901437Y-127361807D01*
X164211000Y-127240224D01*
X164211000Y-126866112D01*
X164210370Y-126720481D01*
X164208656Y-126601363D01*
X164206120Y-126521134D01*
X164203062Y-126492165D01*
X164171445Y-126498472D01*
X164082808Y-126516624D01*
X163942307Y-126545555D01*
X163755095Y-126584199D01*
X163526326Y-126631490D01*
X163261156Y-126686364D01*
X162964738Y-126747753D01*
X162642227Y-126814593D01*
X162298776Y-126885817D01*
X162147250Y-126917254D01*
X161739813Y-127001844D01*
X161387681Y-127075233D01*
X161083979Y-127139109D01*
X160821834Y-127195164D01*
X160594372Y-127245085D01*
X160394719Y-127290563D01*
X160216003Y-127333287D01*
X160051349Y-127374947D01*
X159893884Y-127417232D01*
X159736733Y-127461832D01*
X159573024Y-127510436D01*
X159395883Y-127564733D01*
X159198436Y-127626414D01*
X158973810Y-127697168D01*
X158972250Y-127697660D01*
X158633388Y-127805461D01*
X158348169Y-127898748D01*
X158109241Y-127980667D01*
X157909253Y-128054364D01*
X157740851Y-128122984D01*
X157596685Y-128189673D01*
X157469401Y-128257576D01*
X157351648Y-128329839D01*
X157236074Y-128409608D01*
X157138672Y-128482137D01*
X156824066Y-128755707D01*
X156520730Y-129085560D01*
X156233214Y-129464836D01*
X155966063Y-129886676D01*
X155723825Y-130344219D01*
X155511047Y-130830606D01*
X155419524Y-131075667D01*
X155374553Y-131209882D01*
X155345829Y-131320170D01*
X155329914Y-131429018D01*
X155323370Y-131558912D01*
X155322639Y-131709467D01*
X155324279Y-132064125D01*
X155324279Y-132064125D01*
G37*
X155324279Y-132064125D02*
X155446490Y-131722059D01*
X155653909Y-131208493D01*
X155892651Y-130738962D01*
X156160501Y-130316237D01*
X156455244Y-129943092D01*
X156774663Y-129622301D01*
X157116544Y-129356637D01*
X157478672Y-129148874D01*
X157516009Y-129131344D01*
X157701081Y-129051462D01*
X157875611Y-128989337D01*
X158057381Y-128940291D01*
X158264176Y-128899644D01*
X158513780Y-128862716D01*
X158559500Y-128856760D01*
X159228666Y-128753155D01*
X159941074Y-128609074D01*
X160692128Y-128425801D01*
X161477236Y-128204624D01*
X162291801Y-127946826D01*
X163131232Y-127653695D01*
X163901437Y-127361807D01*
X164211000Y-127240224D01*
X164211000Y-126866112D01*
X164210370Y-126720481D01*
X164208656Y-126601363D01*
X164206120Y-126521134D01*
X164203062Y-126492165D01*
X164171445Y-126498472D01*
X164082808Y-126516624D01*
X163942307Y-126545555D01*
X163755095Y-126584199D01*
X163526326Y-126631490D01*
X163261156Y-126686364D01*
X162964738Y-126747753D01*
X162642227Y-126814593D01*
X162298776Y-126885817D01*
X162147250Y-126917254D01*
X161739813Y-127001844D01*
X161387681Y-127075233D01*
X161083979Y-127139109D01*
X160821834Y-127195164D01*
X160594372Y-127245085D01*
X160394719Y-127290563D01*
X160216003Y-127333287D01*
X160051349Y-127374947D01*
X159893884Y-127417232D01*
X159736733Y-127461832D01*
X159573024Y-127510436D01*
X159395883Y-127564733D01*
X159198436Y-127626414D01*
X158973810Y-127697168D01*
X158972250Y-127697660D01*
X158633388Y-127805461D01*
X158348169Y-127898748D01*
X158109241Y-127980667D01*
X157909253Y-128054364D01*
X157740851Y-128122984D01*
X157596685Y-128189673D01*
X157469401Y-128257576D01*
X157351648Y-128329839D01*
X157236074Y-128409608D01*
X157138672Y-128482137D01*
X156824066Y-128755707D01*
X156520730Y-129085560D01*
X156233214Y-129464836D01*
X155966063Y-129886676D01*
X155723825Y-130344219D01*
X155511047Y-130830606D01*
X155419524Y-131075667D01*
X155374553Y-131209882D01*
X155345829Y-131320170D01*
X155329914Y-131429018D01*
X155323370Y-131558912D01*
X155322639Y-131709467D01*
X155324279Y-132064125D01*
G36*
X155322630Y-133440864D02*
X155324260Y-133969125D01*
X155523575Y-133397625D01*
X155686596Y-132944022D01*
X155848486Y-132520408D01*
X156007054Y-132131691D01*
X156160107Y-131782782D01*
X156305452Y-131478591D01*
X156440897Y-131224029D01*
X156564250Y-131024005D01*
X156614782Y-130953681D01*
X156819957Y-130731706D01*
X157072013Y-130535178D01*
X157356652Y-130372538D01*
X157659574Y-130252224D01*
X157904846Y-130192228D01*
X158075966Y-130167235D01*
X158256855Y-130150871D01*
X158452219Y-130143612D01*
X158666768Y-130145936D01*
X158905210Y-130158320D01*
X159172252Y-130181241D01*
X159472604Y-130215175D01*
X159810974Y-130260602D01*
X160192069Y-130317996D01*
X160620598Y-130387837D01*
X161101270Y-130470599D01*
X161638793Y-130566762D01*
X161686875Y-130575500D01*
X161952626Y-130624206D01*
X162232520Y-130676148D01*
X162519046Y-130729875D01*
X162804694Y-130783939D01*
X163081953Y-130836890D01*
X163343313Y-130887279D01*
X163581263Y-130933656D01*
X163788293Y-130974572D01*
X163956892Y-131008578D01*
X164079549Y-131034224D01*
X164148755Y-131050060D01*
X164155437Y-131051898D01*
X164178647Y-131053770D01*
X164194343Y-131036679D01*
X164203972Y-130990843D01*
X164208981Y-130906480D01*
X164210818Y-130773806D01*
X164211000Y-130676292D01*
X164211000Y-130284305D01*
X162230671Y-129609187D01*
X160250343Y-128934069D01*
X159895578Y-129014153D01*
X159734843Y-129047967D01*
X159533008Y-129086739D01*
X159311842Y-129126482D01*
X159093110Y-129163208D01*
X159010469Y-129176270D01*
X158683111Y-129227989D01*
X158410369Y-129274187D01*
X158183857Y-129317305D01*
X157995194Y-129359783D01*
X157835993Y-129404061D01*
X157697873Y-129452580D01*
X157572448Y-129507779D01*
X157451335Y-129572100D01*
X157326150Y-129647982D01*
X157273466Y-129681853D01*
X157119936Y-129796190D01*
X156944267Y-129950603D01*
X156759070Y-130132023D01*
X156576959Y-130327377D01*
X156410543Y-130523595D01*
X156272436Y-130707607D01*
X156246218Y-130746500D01*
X156006056Y-131150119D01*
X155783220Y-131600710D01*
X155584727Y-132082588D01*
X155417595Y-132580066D01*
X155401536Y-132634690D01*
X155370851Y-132746647D01*
X155349119Y-132846427D01*
X155334881Y-132948913D01*
X155326682Y-133068984D01*
X155323066Y-133221522D01*
X155322575Y-133421408D01*
X155322630Y-133440864D01*
X155322630Y-133440864D01*
G37*
X155322630Y-133440864D02*
X155324260Y-133969125D01*
X155523575Y-133397625D01*
X155686596Y-132944022D01*
X155848486Y-132520408D01*
X156007054Y-132131691D01*
X156160107Y-131782782D01*
X156305452Y-131478591D01*
X156440897Y-131224029D01*
X156564250Y-131024005D01*
X156614782Y-130953681D01*
X156819957Y-130731706D01*
X157072013Y-130535178D01*
X157356652Y-130372538D01*
X157659574Y-130252224D01*
X157904846Y-130192228D01*
X158075966Y-130167235D01*
X158256855Y-130150871D01*
X158452219Y-130143612D01*
X158666768Y-130145936D01*
X158905210Y-130158320D01*
X159172252Y-130181241D01*
X159472604Y-130215175D01*
X159810974Y-130260602D01*
X160192069Y-130317996D01*
X160620598Y-130387837D01*
X161101270Y-130470599D01*
X161638793Y-130566762D01*
X161686875Y-130575500D01*
X161952626Y-130624206D01*
X162232520Y-130676148D01*
X162519046Y-130729875D01*
X162804694Y-130783939D01*
X163081953Y-130836890D01*
X163343313Y-130887279D01*
X163581263Y-130933656D01*
X163788293Y-130974572D01*
X163956892Y-131008578D01*
X164079549Y-131034224D01*
X164148755Y-131050060D01*
X164155437Y-131051898D01*
X164178647Y-131053770D01*
X164194343Y-131036679D01*
X164203972Y-130990843D01*
X164208981Y-130906480D01*
X164210818Y-130773806D01*
X164211000Y-130676292D01*
X164211000Y-130284305D01*
X162230671Y-129609187D01*
X160250343Y-128934069D01*
X159895578Y-129014153D01*
X159734843Y-129047967D01*
X159533008Y-129086739D01*
X159311842Y-129126482D01*
X159093110Y-129163208D01*
X159010469Y-129176270D01*
X158683111Y-129227989D01*
X158410369Y-129274187D01*
X158183857Y-129317305D01*
X157995194Y-129359783D01*
X157835993Y-129404061D01*
X157697873Y-129452580D01*
X157572448Y-129507779D01*
X157451335Y-129572100D01*
X157326150Y-129647982D01*
X157273466Y-129681853D01*
X157119936Y-129796190D01*
X156944267Y-129950603D01*
X156759070Y-130132023D01*
X156576959Y-130327377D01*
X156410543Y-130523595D01*
X156272436Y-130707607D01*
X156246218Y-130746500D01*
X156006056Y-131150119D01*
X155783220Y-131600710D01*
X155584727Y-132082588D01*
X155417595Y-132580066D01*
X155401536Y-132634690D01*
X155370851Y-132746647D01*
X155349119Y-132846427D01*
X155334881Y-132948913D01*
X155326682Y-133068984D01*
X155323066Y-133221522D01*
X155322575Y-133421408D01*
X155322630Y-133440864D01*
G36*
X153326306Y-128066585D02*
X153423961Y-128255191D01*
X153563393Y-128416172D01*
X153739280Y-128540767D01*
X153946298Y-128620218D01*
X154078242Y-128642136D01*
X154302444Y-128633449D01*
X154507185Y-128570637D01*
X154686341Y-128461659D01*
X154833789Y-128314474D01*
X154943409Y-128137040D01*
X155009078Y-127937317D01*
X155024673Y-127723262D01*
X154984073Y-127502834D01*
X154975105Y-127476250D01*
X154894976Y-127321207D01*
X154773955Y-127171713D01*
X154629127Y-127044591D01*
X154477580Y-126956665D01*
X154429841Y-126939368D01*
X154203858Y-126900946D01*
X153976145Y-126916492D01*
X153801822Y-126969202D01*
X153661122Y-127051536D01*
X153522887Y-127169233D01*
X153406879Y-127303005D01*
X153337225Y-127422604D01*
X153277616Y-127641532D01*
X153275750Y-127859112D01*
X153326306Y-128066585D01*
X153326306Y-128066585D01*
G37*
X153326306Y-128066585D02*
X153423961Y-128255191D01*
X153563393Y-128416172D01*
X153739280Y-128540767D01*
X153946298Y-128620218D01*
X154078242Y-128642136D01*
X154302444Y-128633449D01*
X154507185Y-128570637D01*
X154686341Y-128461659D01*
X154833789Y-128314474D01*
X154943409Y-128137040D01*
X155009078Y-127937317D01*
X155024673Y-127723262D01*
X154984073Y-127502834D01*
X154975105Y-127476250D01*
X154894976Y-127321207D01*
X154773955Y-127171713D01*
X154629127Y-127044591D01*
X154477580Y-126956665D01*
X154429841Y-126939368D01*
X154203858Y-126900946D01*
X153976145Y-126916492D01*
X153801822Y-126969202D01*
X153661122Y-127051536D01*
X153522887Y-127169233D01*
X153406879Y-127303005D01*
X153337225Y-127422604D01*
X153277616Y-127641532D01*
X153275750Y-127859112D01*
X153326306Y-128066585D01*
G36*
X153272968Y-129502395D02*
X153334618Y-129726765D01*
X153441542Y-129916236D01*
X153585098Y-130068181D01*
X153756642Y-130179972D01*
X153947530Y-130248982D01*
X154149120Y-130272582D01*
X154352768Y-130248146D01*
X154549831Y-130173046D01*
X154731666Y-130044654D01*
X154806419Y-129968565D01*
X154914959Y-129812075D01*
X154991685Y-129633639D01*
X155031514Y-129451445D01*
X155029363Y-129283680D01*
X155014914Y-129222500D01*
X154983150Y-129137701D01*
X154941083Y-129042412D01*
X154897576Y-128954667D01*
X154861491Y-128892503D01*
X154843321Y-128873250D01*
X154804778Y-128887474D01*
X154731289Y-128923747D01*
X154682061Y-128950279D01*
X154456030Y-129040602D01*
X154209172Y-129077428D01*
X153954917Y-129060729D01*
X153706695Y-128990477D01*
X153622375Y-128952557D01*
X153463625Y-128873435D01*
X153407850Y-128940621D01*
X153345923Y-129048587D01*
X153298419Y-129193662D01*
X153271545Y-129349988D01*
X153271512Y-129491707D01*
X153272968Y-129502395D01*
X153272968Y-129502395D01*
G37*
X153272968Y-129502395D02*
X153334618Y-129726765D01*
X153441542Y-129916236D01*
X153585098Y-130068181D01*
X153756642Y-130179972D01*
X153947530Y-130248982D01*
X154149120Y-130272582D01*
X154352768Y-130248146D01*
X154549831Y-130173046D01*
X154731666Y-130044654D01*
X154806419Y-129968565D01*
X154914959Y-129812075D01*
X154991685Y-129633639D01*
X155031514Y-129451445D01*
X155029363Y-129283680D01*
X155014914Y-129222500D01*
X154983150Y-129137701D01*
X154941083Y-129042412D01*
X154897576Y-128954667D01*
X154861491Y-128892503D01*
X154843321Y-128873250D01*
X154804778Y-128887474D01*
X154731289Y-128923747D01*
X154682061Y-128950279D01*
X154456030Y-129040602D01*
X154209172Y-129077428D01*
X153954917Y-129060729D01*
X153706695Y-128990477D01*
X153622375Y-128952557D01*
X153463625Y-128873435D01*
X153407850Y-128940621D01*
X153345923Y-129048587D01*
X153298419Y-129193662D01*
X153271545Y-129349988D01*
X153271512Y-129491707D01*
X153272968Y-129502395D01*
G36*
X153272968Y-131089895D02*
X153334618Y-131314265D01*
X153441542Y-131503736D01*
X153585098Y-131655681D01*
X153756642Y-131767472D01*
X153947530Y-131836482D01*
X154149120Y-131860082D01*
X154352768Y-131835646D01*
X154549831Y-131760546D01*
X154731666Y-131632154D01*
X154806419Y-131556065D01*
X154939029Y-131361942D01*
X155013367Y-131151057D01*
X155027785Y-130931242D01*
X154982865Y-130716619D01*
X154941953Y-130613501D01*
X154898710Y-130524453D01*
X154885675Y-130502605D01*
X154837838Y-130429597D01*
X154748141Y-130493467D01*
X154568234Y-130589881D01*
X154353403Y-130645120D01*
X154129612Y-130661616D01*
X153986488Y-130659335D01*
X153877952Y-130645401D01*
X153775345Y-130613849D01*
X153661775Y-130564240D01*
X153448701Y-130464531D01*
X153399521Y-130534078D01*
X153335740Y-130660108D01*
X153289854Y-130819200D01*
X153268566Y-130981909D01*
X153272968Y-131089895D01*
X153272968Y-131089895D01*
G37*
X153272968Y-131089895D02*
X153334618Y-131314265D01*
X153441542Y-131503736D01*
X153585098Y-131655681D01*
X153756642Y-131767472D01*
X153947530Y-131836482D01*
X154149120Y-131860082D01*
X154352768Y-131835646D01*
X154549831Y-131760546D01*
X154731666Y-131632154D01*
X154806419Y-131556065D01*
X154939029Y-131361942D01*
X155013367Y-131151057D01*
X155027785Y-130931242D01*
X154982865Y-130716619D01*
X154941953Y-130613501D01*
X154898710Y-130524453D01*
X154885675Y-130502605D01*
X154837838Y-130429597D01*
X154748141Y-130493467D01*
X154568234Y-130589881D01*
X154353403Y-130645120D01*
X154129612Y-130661616D01*
X153986488Y-130659335D01*
X153877952Y-130645401D01*
X153775345Y-130613849D01*
X153661775Y-130564240D01*
X153448701Y-130464531D01*
X153399521Y-130534078D01*
X153335740Y-130660108D01*
X153289854Y-130819200D01*
X153268566Y-130981909D01*
X153272968Y-131089895D01*
M02*
