G04 #@! TF.FileFunction,Copper,L2,Bot,Signal*
%FSLAX46Y46*%
G04 Gerber Fmt 4.6, Leading zero omitted, Abs format (unit mm)*
G04 Created by KiCad (PCBNEW 4.0.2-stable) date 2016-11-20 00:38:07*
%MOMM*%
G01*
G04 APERTURE LIST*
%ADD10C,0.100000*%
%ADD11C,0.150000*%
%ADD12C,0.300000*%
%ADD13O,3.500000X4.500000*%
%ADD14O,0.950000X1.250000*%
%ADD15O,1.550000X1.000000*%
%ADD16O,1.600000X1.600000*%
%ADD17R,2.032000X1.727200*%
%ADD18O,2.032000X1.727200*%
%ADD19C,0.600000*%
%ADD20C,0.254000*%
G04 APERTURE END LIST*
D10*
D11*
X185420000Y-125730000D02*
X188595000Y-125730000D01*
X188595000Y-110490000D02*
X185420000Y-110490000D01*
X185420000Y-110490000D02*
G75*
G03X177800000Y-118110000I0J-7620000D01*
G01*
X138430000Y-125730000D02*
X138430000Y-124460000D01*
X148590000Y-135890000D02*
X138430000Y-125730000D01*
X149860000Y-135890000D02*
X148590000Y-135890000D01*
X149860000Y-135890000D02*
X188595000Y-135890000D01*
X148590000Y-100330000D02*
X188595000Y-100330000D01*
X138430000Y-110490000D02*
X148590000Y-100330000D01*
X177800000Y-118110000D02*
G75*
G03X185420000Y-125730000I7620000J0D01*
G01*
X138430000Y-124460000D02*
X138430000Y-113030000D01*
X188595000Y-125730000D02*
X188595000Y-135890000D01*
X188595000Y-100330000D02*
X188595000Y-110490000D01*
X138430000Y-113030000D02*
X138430000Y-110490000D01*
D12*
X187279600Y-134309657D02*
X187065314Y-134381086D01*
X186993886Y-134452514D01*
X186922457Y-134595371D01*
X186922457Y-134809657D01*
X186993886Y-134952514D01*
X187065314Y-135023943D01*
X187208172Y-135095371D01*
X187779600Y-135095371D01*
X187779600Y-133595371D01*
X187279600Y-133595371D01*
X187136743Y-133666800D01*
X187065314Y-133738229D01*
X186993886Y-133881086D01*
X186993886Y-134023943D01*
X187065314Y-134166800D01*
X187136743Y-134238229D01*
X187279600Y-134309657D01*
X187779600Y-134309657D01*
X185993886Y-133595371D02*
X185708172Y-133595371D01*
X185565314Y-133666800D01*
X185422457Y-133809657D01*
X185351029Y-134095371D01*
X185351029Y-134595371D01*
X185422457Y-134881086D01*
X185565314Y-135023943D01*
X185708172Y-135095371D01*
X185993886Y-135095371D01*
X186136743Y-135023943D01*
X186279600Y-134881086D01*
X186351029Y-134595371D01*
X186351029Y-134095371D01*
X186279600Y-133809657D01*
X186136743Y-133666800D01*
X185993886Y-133595371D01*
X184922457Y-133595371D02*
X184065314Y-133595371D01*
X184493885Y-135095371D02*
X184493885Y-133595371D01*
D13*
X148082000Y-128244600D03*
X148082000Y-107950000D03*
X170942000Y-128244600D03*
X170942000Y-107975400D03*
D14*
X144818540Y-115926600D03*
X144818540Y-120926600D03*
D15*
X142118540Y-114926600D03*
X142118540Y-121926600D03*
D16*
X158724600Y-114274600D03*
X158724600Y-116814600D03*
X158724600Y-119354600D03*
X158724600Y-121894600D03*
X166344600Y-121894600D03*
X166344600Y-119354600D03*
X166344600Y-116814600D03*
X166344600Y-114274600D03*
D17*
X171450000Y-114300000D03*
D18*
X171450000Y-116840000D03*
X171450000Y-119380000D03*
X171450000Y-121920000D03*
D19*
X161798000Y-130302000D03*
X150622000Y-110490000D03*
D20*
G36*
X187833000Y-109728000D02*
X181610000Y-109728000D01*
X181560590Y-109738006D01*
X181520197Y-109765197D01*
X177075197Y-114210197D01*
X177047334Y-114252211D01*
X177038000Y-114300000D01*
X177038000Y-121920000D01*
X177048006Y-121969410D01*
X177075197Y-122009803D01*
X181520197Y-126454803D01*
X181562211Y-126482666D01*
X181610000Y-126492000D01*
X187833000Y-126492000D01*
X187833000Y-132281800D01*
X183137457Y-132281800D01*
X183137457Y-135128000D01*
X149277606Y-135128000D01*
X141837686Y-127688080D01*
X145697000Y-127688080D01*
X145697000Y-128801120D01*
X145878547Y-129713820D01*
X146395550Y-130487570D01*
X147169300Y-131004573D01*
X148082000Y-131186120D01*
X148994700Y-131004573D01*
X149768450Y-130487570D01*
X150285453Y-129713820D01*
X150467000Y-128801120D01*
X150467000Y-127688080D01*
X168557000Y-127688080D01*
X168557000Y-128801120D01*
X168738547Y-129713820D01*
X169255550Y-130487570D01*
X170029300Y-131004573D01*
X170942000Y-131186120D01*
X171854700Y-131004573D01*
X172628450Y-130487570D01*
X173145453Y-129713820D01*
X173327000Y-128801120D01*
X173327000Y-127688080D01*
X173145453Y-126775380D01*
X172628450Y-126001630D01*
X171854700Y-125484627D01*
X170942000Y-125303080D01*
X170029300Y-125484627D01*
X169255550Y-126001630D01*
X168738547Y-126775380D01*
X168557000Y-127688080D01*
X150467000Y-127688080D01*
X150285453Y-126775380D01*
X149768450Y-126001630D01*
X148994700Y-125484627D01*
X148082000Y-125303080D01*
X147169300Y-125484627D01*
X146395550Y-126001630D01*
X145878547Y-126775380D01*
X145697000Y-127688080D01*
X141837686Y-127688080D01*
X139192000Y-125042394D01*
X139192000Y-122228474D01*
X140749421Y-122228474D01*
X140951172Y-122639363D01*
X141291862Y-122926602D01*
X141716540Y-123061600D01*
X141991540Y-123061600D01*
X141991540Y-122053600D01*
X142245540Y-122053600D01*
X142245540Y-123061600D01*
X142520540Y-123061600D01*
X142945218Y-122926602D01*
X143285908Y-122639363D01*
X143480212Y-122243639D01*
X157332696Y-122243639D01*
X157493559Y-122632023D01*
X157869466Y-123046989D01*
X158375559Y-123286514D01*
X158597600Y-123165229D01*
X158597600Y-122021600D01*
X158851600Y-122021600D01*
X158851600Y-123165229D01*
X159073641Y-123286514D01*
X159579734Y-123046989D01*
X159955641Y-122632023D01*
X160116504Y-122243639D01*
X159994515Y-122021600D01*
X158851600Y-122021600D01*
X158597600Y-122021600D01*
X157454685Y-122021600D01*
X157332696Y-122243639D01*
X143480212Y-122243639D01*
X143487659Y-122228474D01*
X143361494Y-122053600D01*
X142245540Y-122053600D01*
X141991540Y-122053600D01*
X140875586Y-122053600D01*
X140749421Y-122228474D01*
X139192000Y-122228474D01*
X139192000Y-121624726D01*
X140749421Y-121624726D01*
X140875586Y-121799600D01*
X141991540Y-121799600D01*
X141991540Y-120791600D01*
X142245540Y-120791600D01*
X142245540Y-121799600D01*
X143361494Y-121799600D01*
X143487659Y-121624726D01*
X143292731Y-121227731D01*
X143717311Y-121227731D01*
X143858972Y-121637649D01*
X144146719Y-121962152D01*
X144520602Y-122145868D01*
X144691540Y-122019334D01*
X144691540Y-121053600D01*
X144945540Y-121053600D01*
X144945540Y-122019334D01*
X145116478Y-122145868D01*
X145490361Y-121962152D01*
X145778108Y-121637649D01*
X145919769Y-121227731D01*
X145771103Y-121053600D01*
X144945540Y-121053600D01*
X144691540Y-121053600D01*
X143865977Y-121053600D01*
X143717311Y-121227731D01*
X143292731Y-121227731D01*
X143285908Y-121213837D01*
X142945218Y-120926598D01*
X142520540Y-120791600D01*
X142245540Y-120791600D01*
X141991540Y-120791600D01*
X141716540Y-120791600D01*
X141291862Y-120926598D01*
X140951172Y-121213837D01*
X140749421Y-121624726D01*
X139192000Y-121624726D01*
X139192000Y-120625469D01*
X143717311Y-120625469D01*
X143865977Y-120799600D01*
X144691540Y-120799600D01*
X144691540Y-119833866D01*
X144945540Y-119833866D01*
X144945540Y-120799600D01*
X145771103Y-120799600D01*
X145919769Y-120625469D01*
X145778108Y-120215551D01*
X145490361Y-119891048D01*
X145116478Y-119707332D01*
X144945540Y-119833866D01*
X144691540Y-119833866D01*
X144520602Y-119707332D01*
X144146719Y-119891048D01*
X143858972Y-120215551D01*
X143717311Y-120625469D01*
X139192000Y-120625469D01*
X139192000Y-116227731D01*
X143717311Y-116227731D01*
X143858972Y-116637649D01*
X144146719Y-116962152D01*
X144520602Y-117145868D01*
X144691540Y-117019334D01*
X144691540Y-116053600D01*
X144945540Y-116053600D01*
X144945540Y-117019334D01*
X145116478Y-117145868D01*
X145490361Y-116962152D01*
X145778108Y-116637649D01*
X145919769Y-116227731D01*
X145771103Y-116053600D01*
X144945540Y-116053600D01*
X144691540Y-116053600D01*
X143865977Y-116053600D01*
X143717311Y-116227731D01*
X139192000Y-116227731D01*
X139192000Y-115228474D01*
X140749421Y-115228474D01*
X140951172Y-115639363D01*
X141291862Y-115926602D01*
X141716540Y-116061600D01*
X141991540Y-116061600D01*
X141991540Y-115053600D01*
X142245540Y-115053600D01*
X142245540Y-116061600D01*
X142520540Y-116061600D01*
X142945218Y-115926602D01*
X143285908Y-115639363D01*
X143292730Y-115625469D01*
X143717311Y-115625469D01*
X143865977Y-115799600D01*
X144691540Y-115799600D01*
X144691540Y-114833866D01*
X144945540Y-114833866D01*
X144945540Y-115799600D01*
X145771103Y-115799600D01*
X145919769Y-115625469D01*
X145778108Y-115215551D01*
X145490361Y-114891048D01*
X145116478Y-114707332D01*
X144945540Y-114833866D01*
X144691540Y-114833866D01*
X144520602Y-114707332D01*
X144146719Y-114891048D01*
X143858972Y-115215551D01*
X143717311Y-115625469D01*
X143292730Y-115625469D01*
X143487659Y-115228474D01*
X143361494Y-115053600D01*
X142245540Y-115053600D01*
X141991540Y-115053600D01*
X140875586Y-115053600D01*
X140749421Y-115228474D01*
X139192000Y-115228474D01*
X139192000Y-114624726D01*
X140749421Y-114624726D01*
X140875586Y-114799600D01*
X141991540Y-114799600D01*
X141991540Y-113791600D01*
X142245540Y-113791600D01*
X142245540Y-114799600D01*
X143361494Y-114799600D01*
X143487659Y-114624726D01*
X143315744Y-114274600D01*
X157261487Y-114274600D01*
X157370720Y-114823751D01*
X157681789Y-115289298D01*
X158063875Y-115544600D01*
X157681789Y-115799902D01*
X157370720Y-116265449D01*
X157261487Y-116814600D01*
X157370720Y-117363751D01*
X157681789Y-117829298D01*
X158063875Y-118084600D01*
X157681789Y-118339902D01*
X157370720Y-118805449D01*
X157261487Y-119354600D01*
X157370720Y-119903751D01*
X157681789Y-120369298D01*
X158086303Y-120639586D01*
X157869466Y-120742211D01*
X157493559Y-121157177D01*
X157332696Y-121545561D01*
X157454685Y-121767600D01*
X158597600Y-121767600D01*
X158597600Y-121747600D01*
X158851600Y-121747600D01*
X158851600Y-121767600D01*
X159994515Y-121767600D01*
X160116504Y-121545561D01*
X159955641Y-121157177D01*
X159579734Y-120742211D01*
X159362897Y-120639586D01*
X159767411Y-120369298D01*
X160078480Y-119903751D01*
X160187713Y-119354600D01*
X160078480Y-118805449D01*
X159767411Y-118339902D01*
X159385325Y-118084600D01*
X159767411Y-117829298D01*
X160078480Y-117363751D01*
X160187713Y-116814600D01*
X160078480Y-116265449D01*
X159767411Y-115799902D01*
X159385325Y-115544600D01*
X159767411Y-115289298D01*
X160078480Y-114823751D01*
X160187713Y-114274600D01*
X164881487Y-114274600D01*
X164990720Y-114823751D01*
X165301789Y-115289298D01*
X165683875Y-115544600D01*
X165301789Y-115799902D01*
X164990720Y-116265449D01*
X164881487Y-116814600D01*
X164990720Y-117363751D01*
X165301789Y-117829298D01*
X165683875Y-118084600D01*
X165301789Y-118339902D01*
X164990720Y-118805449D01*
X164881487Y-119354600D01*
X164990720Y-119903751D01*
X165301789Y-120369298D01*
X165683875Y-120624600D01*
X165301789Y-120879902D01*
X164990720Y-121345449D01*
X164881487Y-121894600D01*
X164990720Y-122443751D01*
X165301789Y-122909298D01*
X165767336Y-123220367D01*
X166316487Y-123329600D01*
X166372713Y-123329600D01*
X166921864Y-123220367D01*
X167387411Y-122909298D01*
X167698480Y-122443751D01*
X167807713Y-121894600D01*
X167698480Y-121345449D01*
X167387411Y-120879902D01*
X167005325Y-120624600D01*
X167387411Y-120369298D01*
X167698480Y-119903751D01*
X167802660Y-119380000D01*
X169766655Y-119380000D01*
X169880729Y-119953489D01*
X170205585Y-120439670D01*
X170520366Y-120650000D01*
X170205585Y-120860330D01*
X169880729Y-121346511D01*
X169766655Y-121920000D01*
X169880729Y-122493489D01*
X170205585Y-122979670D01*
X170691766Y-123304526D01*
X171265255Y-123418600D01*
X171634745Y-123418600D01*
X172208234Y-123304526D01*
X172694415Y-122979670D01*
X173019271Y-122493489D01*
X173133345Y-121920000D01*
X173019271Y-121346511D01*
X172694415Y-120860330D01*
X172379634Y-120650000D01*
X172694415Y-120439670D01*
X173019271Y-119953489D01*
X173133345Y-119380000D01*
X173019271Y-118806511D01*
X172694415Y-118320330D01*
X172384931Y-118113539D01*
X172800732Y-117742036D01*
X173054709Y-117214791D01*
X173057358Y-117199026D01*
X172936217Y-116967000D01*
X171577000Y-116967000D01*
X171577000Y-116987000D01*
X171323000Y-116987000D01*
X171323000Y-116967000D01*
X169963783Y-116967000D01*
X169842642Y-117199026D01*
X169845291Y-117214791D01*
X170099268Y-117742036D01*
X170515069Y-118113539D01*
X170205585Y-118320330D01*
X169880729Y-118806511D01*
X169766655Y-119380000D01*
X167802660Y-119380000D01*
X167807713Y-119354600D01*
X167698480Y-118805449D01*
X167387411Y-118339902D01*
X167005325Y-118084600D01*
X167387411Y-117829298D01*
X167698480Y-117363751D01*
X167807713Y-116814600D01*
X167698480Y-116265449D01*
X167387411Y-115799902D01*
X167005325Y-115544600D01*
X167387411Y-115289298D01*
X167698480Y-114823751D01*
X167807713Y-114274600D01*
X167698480Y-113725449D01*
X167505344Y-113436400D01*
X169786560Y-113436400D01*
X169786560Y-115163600D01*
X169830838Y-115398917D01*
X169969910Y-115615041D01*
X170182110Y-115760031D01*
X170276927Y-115779232D01*
X170099268Y-115937964D01*
X169845291Y-116465209D01*
X169842642Y-116480974D01*
X169963783Y-116713000D01*
X171323000Y-116713000D01*
X171323000Y-116693000D01*
X171577000Y-116693000D01*
X171577000Y-116713000D01*
X172936217Y-116713000D01*
X173057358Y-116480974D01*
X173054709Y-116465209D01*
X172800732Y-115937964D01*
X172625155Y-115781093D01*
X172701317Y-115766762D01*
X172917441Y-115627690D01*
X173062431Y-115415490D01*
X173113440Y-115163600D01*
X173113440Y-113436400D01*
X173069162Y-113201083D01*
X172930090Y-112984959D01*
X172717890Y-112839969D01*
X172466000Y-112788960D01*
X170434000Y-112788960D01*
X170198683Y-112833238D01*
X169982559Y-112972310D01*
X169837569Y-113184510D01*
X169786560Y-113436400D01*
X167505344Y-113436400D01*
X167387411Y-113259902D01*
X166921864Y-112948833D01*
X166372713Y-112839600D01*
X166316487Y-112839600D01*
X165767336Y-112948833D01*
X165301789Y-113259902D01*
X164990720Y-113725449D01*
X164881487Y-114274600D01*
X160187713Y-114274600D01*
X160078480Y-113725449D01*
X159767411Y-113259902D01*
X159301864Y-112948833D01*
X158752713Y-112839600D01*
X158696487Y-112839600D01*
X158147336Y-112948833D01*
X157681789Y-113259902D01*
X157370720Y-113725449D01*
X157261487Y-114274600D01*
X143315744Y-114274600D01*
X143285908Y-114213837D01*
X142945218Y-113926598D01*
X142520540Y-113791600D01*
X142245540Y-113791600D01*
X141991540Y-113791600D01*
X141716540Y-113791600D01*
X141291862Y-113926598D01*
X140951172Y-114213837D01*
X140749421Y-114624726D01*
X139192000Y-114624726D01*
X139192000Y-111177606D01*
X142976126Y-107393480D01*
X145697000Y-107393480D01*
X145697000Y-108506520D01*
X145878547Y-109419220D01*
X146395550Y-110192970D01*
X147169300Y-110709973D01*
X148082000Y-110891520D01*
X148994700Y-110709973D01*
X149768450Y-110192970D01*
X150285453Y-109419220D01*
X150467000Y-108506520D01*
X150467000Y-107418880D01*
X168557000Y-107418880D01*
X168557000Y-108531920D01*
X168738547Y-109444620D01*
X169255550Y-110218370D01*
X170029300Y-110735373D01*
X170942000Y-110916920D01*
X171854700Y-110735373D01*
X172628450Y-110218370D01*
X173145453Y-109444620D01*
X173327000Y-108531920D01*
X173327000Y-107418880D01*
X173145453Y-106506180D01*
X172628450Y-105732430D01*
X171854700Y-105215427D01*
X170942000Y-105033880D01*
X170029300Y-105215427D01*
X169255550Y-105732430D01*
X168738547Y-106506180D01*
X168557000Y-107418880D01*
X150467000Y-107418880D01*
X150467000Y-107393480D01*
X150285453Y-106480780D01*
X149768450Y-105707030D01*
X148994700Y-105190027D01*
X148082000Y-105008480D01*
X147169300Y-105190027D01*
X146395550Y-105707030D01*
X145878547Y-106480780D01*
X145697000Y-107393480D01*
X142976126Y-107393480D01*
X149277606Y-101092000D01*
X187833000Y-101092000D01*
X187833000Y-109728000D01*
X187833000Y-109728000D01*
G37*
X187833000Y-109728000D02*
X181610000Y-109728000D01*
X181560590Y-109738006D01*
X181520197Y-109765197D01*
X177075197Y-114210197D01*
X177047334Y-114252211D01*
X177038000Y-114300000D01*
X177038000Y-121920000D01*
X177048006Y-121969410D01*
X177075197Y-122009803D01*
X181520197Y-126454803D01*
X181562211Y-126482666D01*
X181610000Y-126492000D01*
X187833000Y-126492000D01*
X187833000Y-132281800D01*
X183137457Y-132281800D01*
X183137457Y-135128000D01*
X149277606Y-135128000D01*
X141837686Y-127688080D01*
X145697000Y-127688080D01*
X145697000Y-128801120D01*
X145878547Y-129713820D01*
X146395550Y-130487570D01*
X147169300Y-131004573D01*
X148082000Y-131186120D01*
X148994700Y-131004573D01*
X149768450Y-130487570D01*
X150285453Y-129713820D01*
X150467000Y-128801120D01*
X150467000Y-127688080D01*
X168557000Y-127688080D01*
X168557000Y-128801120D01*
X168738547Y-129713820D01*
X169255550Y-130487570D01*
X170029300Y-131004573D01*
X170942000Y-131186120D01*
X171854700Y-131004573D01*
X172628450Y-130487570D01*
X173145453Y-129713820D01*
X173327000Y-128801120D01*
X173327000Y-127688080D01*
X173145453Y-126775380D01*
X172628450Y-126001630D01*
X171854700Y-125484627D01*
X170942000Y-125303080D01*
X170029300Y-125484627D01*
X169255550Y-126001630D01*
X168738547Y-126775380D01*
X168557000Y-127688080D01*
X150467000Y-127688080D01*
X150285453Y-126775380D01*
X149768450Y-126001630D01*
X148994700Y-125484627D01*
X148082000Y-125303080D01*
X147169300Y-125484627D01*
X146395550Y-126001630D01*
X145878547Y-126775380D01*
X145697000Y-127688080D01*
X141837686Y-127688080D01*
X139192000Y-125042394D01*
X139192000Y-122228474D01*
X140749421Y-122228474D01*
X140951172Y-122639363D01*
X141291862Y-122926602D01*
X141716540Y-123061600D01*
X141991540Y-123061600D01*
X141991540Y-122053600D01*
X142245540Y-122053600D01*
X142245540Y-123061600D01*
X142520540Y-123061600D01*
X142945218Y-122926602D01*
X143285908Y-122639363D01*
X143480212Y-122243639D01*
X157332696Y-122243639D01*
X157493559Y-122632023D01*
X157869466Y-123046989D01*
X158375559Y-123286514D01*
X158597600Y-123165229D01*
X158597600Y-122021600D01*
X158851600Y-122021600D01*
X158851600Y-123165229D01*
X159073641Y-123286514D01*
X159579734Y-123046989D01*
X159955641Y-122632023D01*
X160116504Y-122243639D01*
X159994515Y-122021600D01*
X158851600Y-122021600D01*
X158597600Y-122021600D01*
X157454685Y-122021600D01*
X157332696Y-122243639D01*
X143480212Y-122243639D01*
X143487659Y-122228474D01*
X143361494Y-122053600D01*
X142245540Y-122053600D01*
X141991540Y-122053600D01*
X140875586Y-122053600D01*
X140749421Y-122228474D01*
X139192000Y-122228474D01*
X139192000Y-121624726D01*
X140749421Y-121624726D01*
X140875586Y-121799600D01*
X141991540Y-121799600D01*
X141991540Y-120791600D01*
X142245540Y-120791600D01*
X142245540Y-121799600D01*
X143361494Y-121799600D01*
X143487659Y-121624726D01*
X143292731Y-121227731D01*
X143717311Y-121227731D01*
X143858972Y-121637649D01*
X144146719Y-121962152D01*
X144520602Y-122145868D01*
X144691540Y-122019334D01*
X144691540Y-121053600D01*
X144945540Y-121053600D01*
X144945540Y-122019334D01*
X145116478Y-122145868D01*
X145490361Y-121962152D01*
X145778108Y-121637649D01*
X145919769Y-121227731D01*
X145771103Y-121053600D01*
X144945540Y-121053600D01*
X144691540Y-121053600D01*
X143865977Y-121053600D01*
X143717311Y-121227731D01*
X143292731Y-121227731D01*
X143285908Y-121213837D01*
X142945218Y-120926598D01*
X142520540Y-120791600D01*
X142245540Y-120791600D01*
X141991540Y-120791600D01*
X141716540Y-120791600D01*
X141291862Y-120926598D01*
X140951172Y-121213837D01*
X140749421Y-121624726D01*
X139192000Y-121624726D01*
X139192000Y-120625469D01*
X143717311Y-120625469D01*
X143865977Y-120799600D01*
X144691540Y-120799600D01*
X144691540Y-119833866D01*
X144945540Y-119833866D01*
X144945540Y-120799600D01*
X145771103Y-120799600D01*
X145919769Y-120625469D01*
X145778108Y-120215551D01*
X145490361Y-119891048D01*
X145116478Y-119707332D01*
X144945540Y-119833866D01*
X144691540Y-119833866D01*
X144520602Y-119707332D01*
X144146719Y-119891048D01*
X143858972Y-120215551D01*
X143717311Y-120625469D01*
X139192000Y-120625469D01*
X139192000Y-116227731D01*
X143717311Y-116227731D01*
X143858972Y-116637649D01*
X144146719Y-116962152D01*
X144520602Y-117145868D01*
X144691540Y-117019334D01*
X144691540Y-116053600D01*
X144945540Y-116053600D01*
X144945540Y-117019334D01*
X145116478Y-117145868D01*
X145490361Y-116962152D01*
X145778108Y-116637649D01*
X145919769Y-116227731D01*
X145771103Y-116053600D01*
X144945540Y-116053600D01*
X144691540Y-116053600D01*
X143865977Y-116053600D01*
X143717311Y-116227731D01*
X139192000Y-116227731D01*
X139192000Y-115228474D01*
X140749421Y-115228474D01*
X140951172Y-115639363D01*
X141291862Y-115926602D01*
X141716540Y-116061600D01*
X141991540Y-116061600D01*
X141991540Y-115053600D01*
X142245540Y-115053600D01*
X142245540Y-116061600D01*
X142520540Y-116061600D01*
X142945218Y-115926602D01*
X143285908Y-115639363D01*
X143292730Y-115625469D01*
X143717311Y-115625469D01*
X143865977Y-115799600D01*
X144691540Y-115799600D01*
X144691540Y-114833866D01*
X144945540Y-114833866D01*
X144945540Y-115799600D01*
X145771103Y-115799600D01*
X145919769Y-115625469D01*
X145778108Y-115215551D01*
X145490361Y-114891048D01*
X145116478Y-114707332D01*
X144945540Y-114833866D01*
X144691540Y-114833866D01*
X144520602Y-114707332D01*
X144146719Y-114891048D01*
X143858972Y-115215551D01*
X143717311Y-115625469D01*
X143292730Y-115625469D01*
X143487659Y-115228474D01*
X143361494Y-115053600D01*
X142245540Y-115053600D01*
X141991540Y-115053600D01*
X140875586Y-115053600D01*
X140749421Y-115228474D01*
X139192000Y-115228474D01*
X139192000Y-114624726D01*
X140749421Y-114624726D01*
X140875586Y-114799600D01*
X141991540Y-114799600D01*
X141991540Y-113791600D01*
X142245540Y-113791600D01*
X142245540Y-114799600D01*
X143361494Y-114799600D01*
X143487659Y-114624726D01*
X143315744Y-114274600D01*
X157261487Y-114274600D01*
X157370720Y-114823751D01*
X157681789Y-115289298D01*
X158063875Y-115544600D01*
X157681789Y-115799902D01*
X157370720Y-116265449D01*
X157261487Y-116814600D01*
X157370720Y-117363751D01*
X157681789Y-117829298D01*
X158063875Y-118084600D01*
X157681789Y-118339902D01*
X157370720Y-118805449D01*
X157261487Y-119354600D01*
X157370720Y-119903751D01*
X157681789Y-120369298D01*
X158086303Y-120639586D01*
X157869466Y-120742211D01*
X157493559Y-121157177D01*
X157332696Y-121545561D01*
X157454685Y-121767600D01*
X158597600Y-121767600D01*
X158597600Y-121747600D01*
X158851600Y-121747600D01*
X158851600Y-121767600D01*
X159994515Y-121767600D01*
X160116504Y-121545561D01*
X159955641Y-121157177D01*
X159579734Y-120742211D01*
X159362897Y-120639586D01*
X159767411Y-120369298D01*
X160078480Y-119903751D01*
X160187713Y-119354600D01*
X160078480Y-118805449D01*
X159767411Y-118339902D01*
X159385325Y-118084600D01*
X159767411Y-117829298D01*
X160078480Y-117363751D01*
X160187713Y-116814600D01*
X160078480Y-116265449D01*
X159767411Y-115799902D01*
X159385325Y-115544600D01*
X159767411Y-115289298D01*
X160078480Y-114823751D01*
X160187713Y-114274600D01*
X164881487Y-114274600D01*
X164990720Y-114823751D01*
X165301789Y-115289298D01*
X165683875Y-115544600D01*
X165301789Y-115799902D01*
X164990720Y-116265449D01*
X164881487Y-116814600D01*
X164990720Y-117363751D01*
X165301789Y-117829298D01*
X165683875Y-118084600D01*
X165301789Y-118339902D01*
X164990720Y-118805449D01*
X164881487Y-119354600D01*
X164990720Y-119903751D01*
X165301789Y-120369298D01*
X165683875Y-120624600D01*
X165301789Y-120879902D01*
X164990720Y-121345449D01*
X164881487Y-121894600D01*
X164990720Y-122443751D01*
X165301789Y-122909298D01*
X165767336Y-123220367D01*
X166316487Y-123329600D01*
X166372713Y-123329600D01*
X166921864Y-123220367D01*
X167387411Y-122909298D01*
X167698480Y-122443751D01*
X167807713Y-121894600D01*
X167698480Y-121345449D01*
X167387411Y-120879902D01*
X167005325Y-120624600D01*
X167387411Y-120369298D01*
X167698480Y-119903751D01*
X167802660Y-119380000D01*
X169766655Y-119380000D01*
X169880729Y-119953489D01*
X170205585Y-120439670D01*
X170520366Y-120650000D01*
X170205585Y-120860330D01*
X169880729Y-121346511D01*
X169766655Y-121920000D01*
X169880729Y-122493489D01*
X170205585Y-122979670D01*
X170691766Y-123304526D01*
X171265255Y-123418600D01*
X171634745Y-123418600D01*
X172208234Y-123304526D01*
X172694415Y-122979670D01*
X173019271Y-122493489D01*
X173133345Y-121920000D01*
X173019271Y-121346511D01*
X172694415Y-120860330D01*
X172379634Y-120650000D01*
X172694415Y-120439670D01*
X173019271Y-119953489D01*
X173133345Y-119380000D01*
X173019271Y-118806511D01*
X172694415Y-118320330D01*
X172384931Y-118113539D01*
X172800732Y-117742036D01*
X173054709Y-117214791D01*
X173057358Y-117199026D01*
X172936217Y-116967000D01*
X171577000Y-116967000D01*
X171577000Y-116987000D01*
X171323000Y-116987000D01*
X171323000Y-116967000D01*
X169963783Y-116967000D01*
X169842642Y-117199026D01*
X169845291Y-117214791D01*
X170099268Y-117742036D01*
X170515069Y-118113539D01*
X170205585Y-118320330D01*
X169880729Y-118806511D01*
X169766655Y-119380000D01*
X167802660Y-119380000D01*
X167807713Y-119354600D01*
X167698480Y-118805449D01*
X167387411Y-118339902D01*
X167005325Y-118084600D01*
X167387411Y-117829298D01*
X167698480Y-117363751D01*
X167807713Y-116814600D01*
X167698480Y-116265449D01*
X167387411Y-115799902D01*
X167005325Y-115544600D01*
X167387411Y-115289298D01*
X167698480Y-114823751D01*
X167807713Y-114274600D01*
X167698480Y-113725449D01*
X167505344Y-113436400D01*
X169786560Y-113436400D01*
X169786560Y-115163600D01*
X169830838Y-115398917D01*
X169969910Y-115615041D01*
X170182110Y-115760031D01*
X170276927Y-115779232D01*
X170099268Y-115937964D01*
X169845291Y-116465209D01*
X169842642Y-116480974D01*
X169963783Y-116713000D01*
X171323000Y-116713000D01*
X171323000Y-116693000D01*
X171577000Y-116693000D01*
X171577000Y-116713000D01*
X172936217Y-116713000D01*
X173057358Y-116480974D01*
X173054709Y-116465209D01*
X172800732Y-115937964D01*
X172625155Y-115781093D01*
X172701317Y-115766762D01*
X172917441Y-115627690D01*
X173062431Y-115415490D01*
X173113440Y-115163600D01*
X173113440Y-113436400D01*
X173069162Y-113201083D01*
X172930090Y-112984959D01*
X172717890Y-112839969D01*
X172466000Y-112788960D01*
X170434000Y-112788960D01*
X170198683Y-112833238D01*
X169982559Y-112972310D01*
X169837569Y-113184510D01*
X169786560Y-113436400D01*
X167505344Y-113436400D01*
X167387411Y-113259902D01*
X166921864Y-112948833D01*
X166372713Y-112839600D01*
X166316487Y-112839600D01*
X165767336Y-112948833D01*
X165301789Y-113259902D01*
X164990720Y-113725449D01*
X164881487Y-114274600D01*
X160187713Y-114274600D01*
X160078480Y-113725449D01*
X159767411Y-113259902D01*
X159301864Y-112948833D01*
X158752713Y-112839600D01*
X158696487Y-112839600D01*
X158147336Y-112948833D01*
X157681789Y-113259902D01*
X157370720Y-113725449D01*
X157261487Y-114274600D01*
X143315744Y-114274600D01*
X143285908Y-114213837D01*
X142945218Y-113926598D01*
X142520540Y-113791600D01*
X142245540Y-113791600D01*
X141991540Y-113791600D01*
X141716540Y-113791600D01*
X141291862Y-113926598D01*
X140951172Y-114213837D01*
X140749421Y-114624726D01*
X139192000Y-114624726D01*
X139192000Y-111177606D01*
X142976126Y-107393480D01*
X145697000Y-107393480D01*
X145697000Y-108506520D01*
X145878547Y-109419220D01*
X146395550Y-110192970D01*
X147169300Y-110709973D01*
X148082000Y-110891520D01*
X148994700Y-110709973D01*
X149768450Y-110192970D01*
X150285453Y-109419220D01*
X150467000Y-108506520D01*
X150467000Y-107418880D01*
X168557000Y-107418880D01*
X168557000Y-108531920D01*
X168738547Y-109444620D01*
X169255550Y-110218370D01*
X170029300Y-110735373D01*
X170942000Y-110916920D01*
X171854700Y-110735373D01*
X172628450Y-110218370D01*
X173145453Y-109444620D01*
X173327000Y-108531920D01*
X173327000Y-107418880D01*
X173145453Y-106506180D01*
X172628450Y-105732430D01*
X171854700Y-105215427D01*
X170942000Y-105033880D01*
X170029300Y-105215427D01*
X169255550Y-105732430D01*
X168738547Y-106506180D01*
X168557000Y-107418880D01*
X150467000Y-107418880D01*
X150467000Y-107393480D01*
X150285453Y-106480780D01*
X149768450Y-105707030D01*
X148994700Y-105190027D01*
X148082000Y-105008480D01*
X147169300Y-105190027D01*
X146395550Y-105707030D01*
X145878547Y-106480780D01*
X145697000Y-107393480D01*
X142976126Y-107393480D01*
X149277606Y-101092000D01*
X187833000Y-101092000D01*
X187833000Y-109728000D01*
M02*
