G04 #@! TF.FileFunction,Soldermask,Top*
%FSLAX46Y46*%
G04 Gerber Fmt 4.6, Leading zero omitted, Abs format (unit mm)*
G04 Created by KiCad (PCBNEW 4.0.2-stable) date 2016-11-20 00:38:07*
%MOMM*%
G01*
G04 APERTURE LIST*
%ADD10C,0.100000*%
%ADD11C,0.150000*%
%ADD12O,3.900000X4.900000*%
%ADD13R,1.750000X0.800000*%
%ADD14O,1.350000X1.650000*%
%ADD15O,1.950000X1.400000*%
%ADD16O,2.000000X2.000000*%
%ADD17R,2.000000X2.400000*%
%ADD18R,1.310000X1.620000*%
%ADD19R,2.100000X2.400000*%
%ADD20R,2.400000X2.100000*%
%ADD21R,2.580000X2.000000*%
%ADD22R,2.432000X2.127200*%
%ADD23O,2.432000X2.127200*%
G04 APERTURE END LIST*
D10*
D11*
X185420000Y-125730000D02*
X188595000Y-125730000D01*
X188595000Y-110490000D02*
X185420000Y-110490000D01*
X185420000Y-110490000D02*
G75*
G03X177800000Y-118110000I0J-7620000D01*
G01*
X138430000Y-125730000D02*
X138430000Y-124460000D01*
X148590000Y-135890000D02*
X138430000Y-125730000D01*
X149860000Y-135890000D02*
X148590000Y-135890000D01*
X149860000Y-135890000D02*
X188595000Y-135890000D01*
X148590000Y-100330000D02*
X188595000Y-100330000D01*
X138430000Y-110490000D02*
X148590000Y-100330000D01*
X177800000Y-118110000D02*
G75*
G03X185420000Y-125730000I7620000J0D01*
G01*
X138430000Y-124460000D02*
X138430000Y-113030000D01*
X188595000Y-125730000D02*
X188595000Y-135890000D01*
X188595000Y-100330000D02*
X188595000Y-110490000D01*
X138430000Y-113030000D02*
X138430000Y-110490000D01*
D12*
X148082000Y-128244600D03*
X148082000Y-107950000D03*
X170942000Y-128244600D03*
X170942000Y-107975400D03*
D13*
X144818540Y-117126600D03*
X144818540Y-117776600D03*
X144818540Y-118426600D03*
X144818540Y-119076600D03*
X144818540Y-119726600D03*
D14*
X144818540Y-115926600D03*
X144818540Y-120926600D03*
D15*
X142118540Y-114926600D03*
X142118540Y-121926600D03*
D16*
X158724600Y-114274600D03*
X158724600Y-116814600D03*
X158724600Y-119354600D03*
X158724600Y-121894600D03*
X166344600Y-121894600D03*
X166344600Y-119354600D03*
X166344600Y-116814600D03*
X166344600Y-114274600D03*
D17*
X161544000Y-103918000D03*
X161544000Y-107918000D03*
X165608000Y-103918000D03*
X165608000Y-107918000D03*
D18*
X152765000Y-112522000D03*
X149495000Y-112522000D03*
X152765000Y-123698000D03*
X149495000Y-123698000D03*
D19*
X152908000Y-103918000D03*
X152908000Y-107918000D03*
D20*
X153765000Y-116205000D03*
X149765000Y-116205000D03*
X153765000Y-120015000D03*
X149765000Y-120015000D03*
D19*
X157226000Y-103918000D03*
X157226000Y-107918000D03*
X154940000Y-128302000D03*
X154940000Y-132302000D03*
X159512000Y-128302000D03*
X159512000Y-132302000D03*
X163830000Y-132302000D03*
X163830000Y-128302000D03*
D21*
X185577430Y-105412320D03*
X176372570Y-105407680D03*
X176372570Y-130807680D03*
X185577430Y-130812320D03*
D22*
X171450000Y-114300000D03*
D23*
X171450000Y-116840000D03*
X171450000Y-119380000D03*
X171450000Y-121920000D03*
M02*
