M48
;DRILL file {KiCad 4.0.2-stable} date 2016-11-20 00:40:13
;FORMAT={-:-/ absolute / inch / decimal}
FMAT,2
INCH,TZ
T1C0.016
T2C0.020
T3C0.022
T4C0.031
T5C0.040
T6C0.098
%
G90
G05
M72
T1
X5.93Y-4.35
X6.37Y-5.13
T4
X6.249Y-4.499
X6.249Y-4.599
X6.249Y-4.699
X6.249Y-4.799
X6.549Y-4.499
X6.549Y-4.599
X6.549Y-4.699
X6.549Y-4.799
T5
X6.75Y-4.5
X6.75Y-4.6
X6.75Y-4.7
X6.75Y-4.8
T2
X5.5824Y-4.5247G85X5.608Y-4.5247
G05
X5.5824Y-4.8003G85X5.608Y-4.8003
G05
T3
X5.7015Y-4.5581G85X5.7015Y-4.5699
G05
X5.7015Y-4.755G85X5.7015Y-4.7668
G05
T6
X5.83Y-4.2303G85X5.83Y-4.2697
G05
X5.83Y-5.0293G85X5.83Y-5.0687
G05
X6.73Y-4.2313G85X6.73Y-4.2707
G05
X6.73Y-5.0293G85X6.73Y-5.0687
G05
T0
M30
